%FSLAX34Y34*%
G04 Gerber Fmt 3.4, Leading zero omitted, Abs format*
G04 (created by PCBNEW (2014-03-19 BZR 4756)-product) date Thu 10 Jul 2014 12:58:54 AM CEST*
%MOIN*%
G01*
G70*
G90*
G04 APERTURE LIST*
%ADD10C,0.005906*%
%ADD11C,0.008000*%
%ADD12C,0.007874*%
%ADD13C,0.003900*%
G04 APERTURE END LIST*
G54D10*
G54D11*
X20334Y-15354D02*
X20157Y-15649D01*
X20157Y-15649D02*
X20511Y-15649D01*
X20511Y-15649D02*
X20334Y-15354D01*
X18700Y-15354D02*
X18700Y-16141D01*
X19488Y-16732D02*
X19881Y-16732D01*
X20669Y-15354D02*
X20669Y-16141D01*
X19488Y-14763D02*
X19881Y-14763D01*
G54D12*
X18503Y-17263D02*
X18503Y-14232D01*
X20866Y-17263D02*
X18503Y-17263D01*
X18503Y-14232D02*
X20866Y-14232D01*
X20866Y-14232D02*
X20866Y-17263D01*
G54D11*
X28208Y-15354D02*
X28031Y-15649D01*
X28031Y-15649D02*
X28385Y-15649D01*
X28385Y-15649D02*
X28208Y-15354D01*
X26574Y-15354D02*
X26574Y-16141D01*
X27362Y-16732D02*
X27755Y-16732D01*
X28543Y-15354D02*
X28543Y-16141D01*
X27362Y-14763D02*
X27755Y-14763D01*
G54D12*
X26377Y-17263D02*
X26377Y-14232D01*
X28740Y-17263D02*
X26377Y-17263D01*
X26377Y-14232D02*
X28740Y-14232D01*
X28740Y-14232D02*
X28740Y-17263D01*
G54D11*
X36082Y-15354D02*
X35905Y-15649D01*
X35905Y-15649D02*
X36259Y-15649D01*
X36259Y-15649D02*
X36082Y-15354D01*
X34448Y-15354D02*
X34448Y-16141D01*
X35236Y-16732D02*
X35629Y-16732D01*
X36417Y-15354D02*
X36417Y-16141D01*
X35236Y-14763D02*
X35629Y-14763D01*
G54D12*
X34251Y-17263D02*
X34251Y-14232D01*
X36614Y-17263D02*
X34251Y-17263D01*
X34251Y-14232D02*
X36614Y-14232D01*
X36614Y-14232D02*
X36614Y-17263D01*
G54D11*
X43956Y-15354D02*
X43779Y-15649D01*
X43779Y-15649D02*
X44133Y-15649D01*
X44133Y-15649D02*
X43956Y-15354D01*
X42322Y-15354D02*
X42322Y-16141D01*
X43110Y-16732D02*
X43503Y-16732D01*
X44291Y-15354D02*
X44291Y-16141D01*
X43110Y-14763D02*
X43503Y-14763D01*
G54D12*
X42125Y-17263D02*
X42125Y-14232D01*
X44488Y-17263D02*
X42125Y-17263D01*
X42125Y-14232D02*
X44488Y-14232D01*
X44488Y-14232D02*
X44488Y-17263D01*
G54D11*
X51830Y-15354D02*
X51653Y-15649D01*
X51653Y-15649D02*
X52007Y-15649D01*
X52007Y-15649D02*
X51830Y-15354D01*
X50196Y-15354D02*
X50196Y-16141D01*
X50984Y-16732D02*
X51377Y-16732D01*
X52165Y-15354D02*
X52165Y-16141D01*
X50984Y-14763D02*
X51377Y-14763D01*
G54D12*
X50000Y-17263D02*
X50000Y-14232D01*
X52362Y-17263D02*
X50000Y-17263D01*
X50000Y-14232D02*
X52362Y-14232D01*
X52362Y-14232D02*
X52362Y-17263D01*
G54D11*
X59704Y-15354D02*
X59527Y-15649D01*
X59527Y-15649D02*
X59881Y-15649D01*
X59881Y-15649D02*
X59704Y-15354D01*
X58070Y-15354D02*
X58070Y-16141D01*
X58858Y-16732D02*
X59251Y-16732D01*
X60039Y-15354D02*
X60039Y-16141D01*
X58858Y-14763D02*
X59251Y-14763D01*
G54D12*
X57874Y-17263D02*
X57874Y-14232D01*
X60236Y-17263D02*
X57874Y-17263D01*
X57874Y-14232D02*
X60236Y-14232D01*
X60236Y-14232D02*
X60236Y-17263D01*
G54D11*
X67578Y-15354D02*
X67401Y-15649D01*
X67401Y-15649D02*
X67755Y-15649D01*
X67755Y-15649D02*
X67578Y-15354D01*
X65944Y-15354D02*
X65944Y-16141D01*
X66732Y-16732D02*
X67125Y-16732D01*
X67913Y-15354D02*
X67913Y-16141D01*
X66732Y-14763D02*
X67125Y-14763D01*
G54D12*
X65748Y-17263D02*
X65748Y-14232D01*
X68110Y-17263D02*
X65748Y-17263D01*
X65748Y-14232D02*
X68110Y-14232D01*
X68110Y-14232D02*
X68110Y-17263D01*
G54D11*
X75452Y-15354D02*
X75275Y-15649D01*
X75275Y-15649D02*
X75629Y-15649D01*
X75629Y-15649D02*
X75452Y-15354D01*
X73818Y-15354D02*
X73818Y-16141D01*
X74606Y-16732D02*
X75000Y-16732D01*
X75787Y-15354D02*
X75787Y-16141D01*
X74606Y-14763D02*
X75000Y-14763D01*
G54D12*
X73622Y-17263D02*
X73622Y-14232D01*
X75984Y-17263D02*
X73622Y-17263D01*
X73622Y-14232D02*
X75984Y-14232D01*
X75984Y-14232D02*
X75984Y-17263D01*
G54D11*
X83326Y-15354D02*
X83149Y-15649D01*
X83149Y-15649D02*
X83503Y-15649D01*
X83503Y-15649D02*
X83326Y-15354D01*
X81692Y-15354D02*
X81692Y-16141D01*
X82480Y-16732D02*
X82874Y-16732D01*
X83661Y-15354D02*
X83661Y-16141D01*
X82480Y-14763D02*
X82874Y-14763D01*
G54D12*
X81496Y-17263D02*
X81496Y-14232D01*
X83858Y-17263D02*
X81496Y-17263D01*
X81496Y-14232D02*
X83858Y-14232D01*
X83858Y-14232D02*
X83858Y-17263D01*
G54D11*
X91200Y-15354D02*
X91023Y-15649D01*
X91023Y-15649D02*
X91377Y-15649D01*
X91377Y-15649D02*
X91200Y-15354D01*
X89566Y-15354D02*
X89566Y-16141D01*
X90354Y-16732D02*
X90748Y-16732D01*
X91535Y-15354D02*
X91535Y-16141D01*
X90354Y-14763D02*
X90748Y-14763D01*
G54D12*
X89370Y-17263D02*
X89370Y-14232D01*
X91732Y-17263D02*
X89370Y-17263D01*
X89370Y-14232D02*
X91732Y-14232D01*
X91732Y-14232D02*
X91732Y-17263D01*
G54D13*
X21609Y-16398D02*
G75*
G03X21609Y-16398I-50J0D01*
G74*
G01*
X21559Y-15948D02*
X21559Y-16348D01*
X21559Y-16348D02*
X20959Y-16348D01*
X20959Y-16348D02*
X20959Y-15948D01*
X20959Y-15548D02*
X20959Y-15148D01*
X20959Y-15148D02*
X21559Y-15148D01*
X21559Y-15148D02*
X21559Y-15548D01*
X29483Y-16398D02*
G75*
G03X29483Y-16398I-50J0D01*
G74*
G01*
X29433Y-15948D02*
X29433Y-16348D01*
X29433Y-16348D02*
X28833Y-16348D01*
X28833Y-16348D02*
X28833Y-15948D01*
X28833Y-15548D02*
X28833Y-15148D01*
X28833Y-15148D02*
X29433Y-15148D01*
X29433Y-15148D02*
X29433Y-15548D01*
X37357Y-16398D02*
G75*
G03X37357Y-16398I-50J0D01*
G74*
G01*
X37307Y-15948D02*
X37307Y-16348D01*
X37307Y-16348D02*
X36707Y-16348D01*
X36707Y-16348D02*
X36707Y-15948D01*
X36707Y-15548D02*
X36707Y-15148D01*
X36707Y-15148D02*
X37307Y-15148D01*
X37307Y-15148D02*
X37307Y-15548D01*
X45231Y-16398D02*
G75*
G03X45231Y-16398I-50J0D01*
G74*
G01*
X45181Y-15948D02*
X45181Y-16348D01*
X45181Y-16348D02*
X44581Y-16348D01*
X44581Y-16348D02*
X44581Y-15948D01*
X44581Y-15548D02*
X44581Y-15148D01*
X44581Y-15148D02*
X45181Y-15148D01*
X45181Y-15148D02*
X45181Y-15548D01*
X53105Y-16398D02*
G75*
G03X53105Y-16398I-50J0D01*
G74*
G01*
X53055Y-15948D02*
X53055Y-16348D01*
X53055Y-16348D02*
X52455Y-16348D01*
X52455Y-16348D02*
X52455Y-15948D01*
X52455Y-15548D02*
X52455Y-15148D01*
X52455Y-15148D02*
X53055Y-15148D01*
X53055Y-15148D02*
X53055Y-15548D01*
X60979Y-16398D02*
G75*
G03X60979Y-16398I-50J0D01*
G74*
G01*
X60929Y-15948D02*
X60929Y-16348D01*
X60929Y-16348D02*
X60329Y-16348D01*
X60329Y-16348D02*
X60329Y-15948D01*
X60329Y-15548D02*
X60329Y-15148D01*
X60329Y-15148D02*
X60929Y-15148D01*
X60929Y-15148D02*
X60929Y-15548D01*
X76727Y-16398D02*
G75*
G03X76727Y-16398I-50J0D01*
G74*
G01*
X76677Y-15948D02*
X76677Y-16348D01*
X76677Y-16348D02*
X76077Y-16348D01*
X76077Y-16348D02*
X76077Y-15948D01*
X76077Y-15548D02*
X76077Y-15148D01*
X76077Y-15148D02*
X76677Y-15148D01*
X76677Y-15148D02*
X76677Y-15548D01*
X84601Y-16398D02*
G75*
G03X84601Y-16398I-50J0D01*
G74*
G01*
X84551Y-15948D02*
X84551Y-16348D01*
X84551Y-16348D02*
X83951Y-16348D01*
X83951Y-16348D02*
X83951Y-15948D01*
X83951Y-15548D02*
X83951Y-15148D01*
X83951Y-15148D02*
X84551Y-15148D01*
X84551Y-15148D02*
X84551Y-15548D01*
X92475Y-16398D02*
G75*
G03X92475Y-16398I-50J0D01*
G74*
G01*
X92425Y-15948D02*
X92425Y-16348D01*
X92425Y-16348D02*
X91825Y-16348D01*
X91825Y-16348D02*
X91825Y-15948D01*
X91825Y-15548D02*
X91825Y-15148D01*
X91825Y-15148D02*
X92425Y-15148D01*
X92425Y-15148D02*
X92425Y-15548D01*
X68853Y-16398D02*
G75*
G03X68853Y-16398I-50J0D01*
G74*
G01*
X68803Y-15948D02*
X68803Y-16348D01*
X68803Y-16348D02*
X68203Y-16348D01*
X68203Y-16348D02*
X68203Y-15948D01*
X68203Y-15548D02*
X68203Y-15148D01*
X68203Y-15148D02*
X68803Y-15148D01*
X68803Y-15148D02*
X68803Y-15548D01*
M02*
