%FSLAX34Y34*%
G04 Gerber Fmt 3.4, Leading zero omitted, Abs format*
G04 (created by PCBNEW (2014-03-19 BZR 4756)-product) date Thu 10 Jul 2014 12:58:54 AM CEST*
%MOIN*%
G01*
G70*
G90*
G04 APERTURE LIST*
%ADD10C,0.005906*%
%ADD11R,0.055118X0.070866*%
%ADD12R,0.055000X0.035000*%
%ADD13C,0.098400*%
%ADD14C,0.035000*%
%ADD15C,0.031496*%
G04 APERTURE END LIST*
G54D10*
G54D11*
X20334Y-14803D03*
X19035Y-14803D03*
X19035Y-16692D03*
X20334Y-16692D03*
X28208Y-14803D03*
X26909Y-14803D03*
X26909Y-16692D03*
X28208Y-16692D03*
X36082Y-14803D03*
X34783Y-14803D03*
X34783Y-16692D03*
X36082Y-16692D03*
X43956Y-14803D03*
X42657Y-14803D03*
X42657Y-16692D03*
X43956Y-16692D03*
X51830Y-14803D03*
X50531Y-14803D03*
X50531Y-16692D03*
X51830Y-16692D03*
X59704Y-14803D03*
X58405Y-14803D03*
X58405Y-16692D03*
X59704Y-16692D03*
X67578Y-14803D03*
X66279Y-14803D03*
X66279Y-16692D03*
X67578Y-16692D03*
X75452Y-14803D03*
X74153Y-14803D03*
X74153Y-16692D03*
X75452Y-16692D03*
X83326Y-14803D03*
X82027Y-14803D03*
X82027Y-16692D03*
X83326Y-16692D03*
X91200Y-14803D03*
X89901Y-14803D03*
X89901Y-16692D03*
X91200Y-16692D03*
G54D12*
X21259Y-16123D03*
X21259Y-15373D03*
X29133Y-16123D03*
X29133Y-15373D03*
X37007Y-16123D03*
X37007Y-15373D03*
X44881Y-16123D03*
X44881Y-15373D03*
X52755Y-16123D03*
X52755Y-15373D03*
X60629Y-16123D03*
X60629Y-15373D03*
X76377Y-16123D03*
X76377Y-15373D03*
X84251Y-16123D03*
X84251Y-15373D03*
X92125Y-16123D03*
X92125Y-15373D03*
X68503Y-16123D03*
X68503Y-15373D03*
G54D13*
X17716Y-14763D03*
X17716Y-16732D03*
X93110Y-16732D03*
X93110Y-14763D03*
G54D14*
X90551Y-14763D03*
X19685Y-16732D03*
X90551Y-16732D03*
X82677Y-14763D03*
X82677Y-16732D03*
X74803Y-14763D03*
X74803Y-16732D03*
X66929Y-14763D03*
X66929Y-16732D03*
X59055Y-14763D03*
X59055Y-16732D03*
X51181Y-14763D03*
X51181Y-16732D03*
X43307Y-14763D03*
X43307Y-16732D03*
X35433Y-14763D03*
X35433Y-16732D03*
X27559Y-14763D03*
X19685Y-14763D03*
X27559Y-16732D03*
G54D15*
X91338Y-15551D02*
X92125Y-15551D01*
X89901Y-14803D02*
X90511Y-14803D01*
X90511Y-14803D02*
X90551Y-14763D01*
X89960Y-15944D02*
X92322Y-15944D01*
X92322Y-15944D02*
X93110Y-16732D01*
X20334Y-15551D02*
X18503Y-15551D01*
X18503Y-15551D02*
X17716Y-14763D01*
X20334Y-16692D02*
X19724Y-16692D01*
X19724Y-16692D02*
X19685Y-16732D01*
X82027Y-14803D02*
X82637Y-14803D01*
X90590Y-16692D02*
X91200Y-16692D01*
X90551Y-16732D02*
X90590Y-16692D01*
X82637Y-14803D02*
X82677Y-14763D01*
X74153Y-14803D02*
X74763Y-14803D01*
X82716Y-16692D02*
X83326Y-16692D01*
X82677Y-16732D02*
X82716Y-16692D01*
X74763Y-14803D02*
X74803Y-14763D01*
X66279Y-14803D02*
X66889Y-14803D01*
X74842Y-16692D02*
X75452Y-16692D01*
X74803Y-16732D02*
X74842Y-16692D01*
X66889Y-14803D02*
X66929Y-14763D01*
X58405Y-14803D02*
X59015Y-14803D01*
X66968Y-16692D02*
X67578Y-16692D01*
X66929Y-16732D02*
X66968Y-16692D01*
X59015Y-14803D02*
X59055Y-14763D01*
X50531Y-14803D02*
X51141Y-14803D01*
X59094Y-16692D02*
X59704Y-16692D01*
X59055Y-16732D02*
X59094Y-16692D01*
X51141Y-14803D02*
X51181Y-14763D01*
X42657Y-14803D02*
X43267Y-14803D01*
X51220Y-16692D02*
X51830Y-16692D01*
X51181Y-16732D02*
X51220Y-16692D01*
X43267Y-14803D02*
X43307Y-14763D01*
X34783Y-14803D02*
X35393Y-14803D01*
X43346Y-16692D02*
X43956Y-16692D01*
X43307Y-16732D02*
X43346Y-16692D01*
X35393Y-14803D02*
X35433Y-14763D01*
X26909Y-14803D02*
X27519Y-14803D01*
X35472Y-16692D02*
X36082Y-16692D01*
X35433Y-16732D02*
X35472Y-16692D01*
X27519Y-14803D02*
X27559Y-14763D01*
X28208Y-16692D02*
X27598Y-16692D01*
X19645Y-14803D02*
X19035Y-14803D01*
X19685Y-14763D02*
X19645Y-14803D01*
X27598Y-16692D02*
X27559Y-16732D01*
X91200Y-14803D02*
X91200Y-15551D01*
X91200Y-15551D02*
X91338Y-15551D01*
X89960Y-15944D02*
X89960Y-16633D01*
X89960Y-16633D02*
X89901Y-16692D01*
X83326Y-14803D02*
X83326Y-15551D01*
X83326Y-15551D02*
X83267Y-15551D01*
X82086Y-15944D02*
X82086Y-16633D01*
X82086Y-16633D02*
X82027Y-16692D01*
X74212Y-15944D02*
X74212Y-16633D01*
X74212Y-16633D02*
X74153Y-16692D01*
X75452Y-14803D02*
X75452Y-15551D01*
X75452Y-15551D02*
X75393Y-15551D01*
X67578Y-14803D02*
X67578Y-15551D01*
X67578Y-15551D02*
X67519Y-15551D01*
X66338Y-15944D02*
X66338Y-16633D01*
X66338Y-16633D02*
X66279Y-16692D01*
X59704Y-14803D02*
X59704Y-15551D01*
X59704Y-15551D02*
X59645Y-15551D01*
X58464Y-15944D02*
X58464Y-16633D01*
X58464Y-16633D02*
X58405Y-16692D01*
X51830Y-14803D02*
X51830Y-15551D01*
X51830Y-15551D02*
X51771Y-15551D01*
X50590Y-15944D02*
X50590Y-16633D01*
X50590Y-16633D02*
X50531Y-16692D01*
X43956Y-14803D02*
X43956Y-15551D01*
X43956Y-15551D02*
X43897Y-15551D01*
X42716Y-15944D02*
X42716Y-16633D01*
X42716Y-16633D02*
X42657Y-16692D01*
X34842Y-15944D02*
X34842Y-16633D01*
X34842Y-16633D02*
X34783Y-16692D01*
X36082Y-14803D02*
X36082Y-15551D01*
X36082Y-15551D02*
X36023Y-15551D01*
X26909Y-16692D02*
X26909Y-15944D01*
X26909Y-15944D02*
X26968Y-15944D01*
X28208Y-14803D02*
X28208Y-15551D01*
X28208Y-15551D02*
X28149Y-15551D01*
X19094Y-15944D02*
X19094Y-16633D01*
X19094Y-16633D02*
X19035Y-16692D01*
X20334Y-14803D02*
X20334Y-15551D01*
X20334Y-15551D02*
X20275Y-15551D01*
X89960Y-15944D02*
X82086Y-15944D01*
X82086Y-15944D02*
X74212Y-15944D01*
X74212Y-15944D02*
X66338Y-15944D01*
X66338Y-15944D02*
X58464Y-15944D01*
X58464Y-15944D02*
X50590Y-15944D01*
X50590Y-15944D02*
X42716Y-15944D01*
X42716Y-15944D02*
X34842Y-15944D01*
X34842Y-15944D02*
X26968Y-15944D01*
X26968Y-15944D02*
X19094Y-15944D01*
X20275Y-15551D02*
X28149Y-15551D01*
X28149Y-15551D02*
X36023Y-15551D01*
X36023Y-15551D02*
X43897Y-15551D01*
X43897Y-15551D02*
X51771Y-15551D01*
X51771Y-15551D02*
X59645Y-15551D01*
X59645Y-15551D02*
X67519Y-15551D01*
X67519Y-15551D02*
X75393Y-15551D01*
X75393Y-15551D02*
X83267Y-15551D01*
X83267Y-15551D02*
X91338Y-15551D01*
M02*
