%FSLAX34Y34*%
G04 Gerber Fmt 3.4, Leading zero omitted, Abs format*
G04 (created by PCBNEW (2014-03-19 BZR 4756)-product) date Thu 10 Jul 2014 12:58:54 AM CEST*
%MOIN*%
G01*
G70*
G90*
G04 APERTURE LIST*
%ADD10C,0.005906*%
%ADD11R,0.055118X0.070866*%
%ADD12R,0.055000X0.035000*%
G04 APERTURE END LIST*
G54D10*
G54D11*
X20334Y-14803D03*
X19035Y-14803D03*
X19035Y-16692D03*
X20334Y-16692D03*
X28208Y-14803D03*
X26909Y-14803D03*
X26909Y-16692D03*
X28208Y-16692D03*
X36082Y-14803D03*
X34783Y-14803D03*
X34783Y-16692D03*
X36082Y-16692D03*
X43956Y-14803D03*
X42657Y-14803D03*
X42657Y-16692D03*
X43956Y-16692D03*
X51830Y-14803D03*
X50531Y-14803D03*
X50531Y-16692D03*
X51830Y-16692D03*
X59704Y-14803D03*
X58405Y-14803D03*
X58405Y-16692D03*
X59704Y-16692D03*
X67578Y-14803D03*
X66279Y-14803D03*
X66279Y-16692D03*
X67578Y-16692D03*
X75452Y-14803D03*
X74153Y-14803D03*
X74153Y-16692D03*
X75452Y-16692D03*
X83326Y-14803D03*
X82027Y-14803D03*
X82027Y-16692D03*
X83326Y-16692D03*
X91200Y-14803D03*
X89901Y-14803D03*
X89901Y-16692D03*
X91200Y-16692D03*
G54D12*
X21259Y-16123D03*
X21259Y-15373D03*
X29133Y-16123D03*
X29133Y-15373D03*
X37007Y-16123D03*
X37007Y-15373D03*
X44881Y-16123D03*
X44881Y-15373D03*
X52755Y-16123D03*
X52755Y-15373D03*
X60629Y-16123D03*
X60629Y-15373D03*
X76377Y-16123D03*
X76377Y-15373D03*
X84251Y-16123D03*
X84251Y-15373D03*
X92125Y-16123D03*
X92125Y-15373D03*
X68503Y-16123D03*
X68503Y-15373D03*
M02*
