M48
INCH,TZ
T1C0.025
T2C0.039
%
G90
G05
T1
X19685Y-14764
X19685Y-16732
X27559Y-14764
X27559Y-16732
X35433Y-14764
X35433Y-16732
X43307Y-14764
X43307Y-16732
X51181Y-14764
X51181Y-16732
X59055Y-14764
X59055Y-16732
X66929Y-14764
X66929Y-16732
X74803Y-14764
X74803Y-16732
X82677Y-14764
X82677Y-16732
X90551Y-14764
X90551Y-16732
T2
X17717Y-14764
X17717Y-16732
X93110Y-14764
X93110Y-16732
T0
M30
