%FSLAX34Y34*%
G04 Gerber Fmt 3.4, Leading zero omitted, Abs format*
G04 (created by PCBNEW (2014-03-19 BZR 4756)-product) date Thu 10 Jul 2014 12:58:54 AM CEST*
%MOIN*%
G01*
G70*
G90*
G04 APERTURE LIST*
%ADD10C,0.005906*%
%ADD11C,0.003937*%
G04 APERTURE END LIST*
G54D10*
G54D11*
X17125Y-17322D02*
X18503Y-17322D01*
X17125Y-14173D02*
X17125Y-17322D01*
X18503Y-14173D02*
X17125Y-14173D01*
X92519Y-15157D02*
X91732Y-15157D01*
X92519Y-14173D02*
X92519Y-15157D01*
X93700Y-14173D02*
X92519Y-14173D01*
X93700Y-17322D02*
X93700Y-14173D01*
X92519Y-17322D02*
X93700Y-17322D01*
X92519Y-16338D02*
X92519Y-17322D01*
X91732Y-16338D02*
X92519Y-16338D01*
X20866Y-17322D02*
X18503Y-17322D01*
X20866Y-16338D02*
X20866Y-17322D01*
X26377Y-16338D02*
X20866Y-16338D01*
X26377Y-17322D02*
X26377Y-16338D01*
X28740Y-17322D02*
X26377Y-17322D01*
X28740Y-16338D02*
X28740Y-17322D01*
X34251Y-16338D02*
X28740Y-16338D01*
X34251Y-17322D02*
X34251Y-16338D01*
X36614Y-17322D02*
X34251Y-17322D01*
X36614Y-16338D02*
X36614Y-17322D01*
X42125Y-16338D02*
X36614Y-16338D01*
X42125Y-17322D02*
X42125Y-16338D01*
X44488Y-17322D02*
X42125Y-17322D01*
X44488Y-16338D02*
X44488Y-17322D01*
X50000Y-16338D02*
X44488Y-16338D01*
X50000Y-17322D02*
X50000Y-16338D01*
X52362Y-17322D02*
X50000Y-17322D01*
X52362Y-16338D02*
X52362Y-17322D01*
X57874Y-16338D02*
X52362Y-16338D01*
X57874Y-17322D02*
X57874Y-16338D01*
X60236Y-17322D02*
X57874Y-17322D01*
X60236Y-16338D02*
X60236Y-17322D01*
X65748Y-16338D02*
X60236Y-16338D01*
X65748Y-17322D02*
X65748Y-16338D01*
X68110Y-17322D02*
X65748Y-17322D01*
X68110Y-16338D02*
X68110Y-17322D01*
X73622Y-16338D02*
X68110Y-16338D01*
X73622Y-17322D02*
X73622Y-16338D01*
X75984Y-17322D02*
X73622Y-17322D01*
X75984Y-16338D02*
X75984Y-17322D01*
X81496Y-16338D02*
X75984Y-16338D01*
X81496Y-17322D02*
X81496Y-16338D01*
X83858Y-17322D02*
X81496Y-17322D01*
X83858Y-16338D02*
X83858Y-17322D01*
X89370Y-16338D02*
X83858Y-16338D01*
X89370Y-17322D02*
X89370Y-16338D01*
X91732Y-17322D02*
X89370Y-17322D01*
X91732Y-16338D02*
X91732Y-17322D01*
X91732Y-14173D02*
X91732Y-15157D01*
X89370Y-14173D02*
X91732Y-14173D01*
X89370Y-15157D02*
X89370Y-14173D01*
X83858Y-15157D02*
X89370Y-15157D01*
X83858Y-14173D02*
X83858Y-15157D01*
X81496Y-14173D02*
X83858Y-14173D01*
X81496Y-15157D02*
X81496Y-14173D01*
X75984Y-15157D02*
X81496Y-15157D01*
X75984Y-14173D02*
X75984Y-15157D01*
X73622Y-14173D02*
X75984Y-14173D01*
X73622Y-15157D02*
X73622Y-14173D01*
X68110Y-15157D02*
X73622Y-15157D01*
X68110Y-14173D02*
X68110Y-15157D01*
X65748Y-14173D02*
X68110Y-14173D01*
X65748Y-15157D02*
X65748Y-14173D01*
X60236Y-15157D02*
X65748Y-15157D01*
X60236Y-14173D02*
X60236Y-15157D01*
X57874Y-14173D02*
X60236Y-14173D01*
X57874Y-15157D02*
X57874Y-14173D01*
X52362Y-15157D02*
X57874Y-15157D01*
X52362Y-14173D02*
X52362Y-15157D01*
X50000Y-14173D02*
X52362Y-14173D01*
X50000Y-15157D02*
X50000Y-14173D01*
X44488Y-15157D02*
X50000Y-15157D01*
X44488Y-14173D02*
X44488Y-15157D01*
X42125Y-14173D02*
X44488Y-14173D01*
X42125Y-15157D02*
X42125Y-14173D01*
X36614Y-15157D02*
X42125Y-15157D01*
X36614Y-14173D02*
X36614Y-15157D01*
X34251Y-14173D02*
X36614Y-14173D01*
X34251Y-15157D02*
X34251Y-14173D01*
X28740Y-15157D02*
X34251Y-15157D01*
X28740Y-14173D02*
X28740Y-15157D01*
X26377Y-14173D02*
X28740Y-14173D01*
X26377Y-15157D02*
X26377Y-14173D01*
X20866Y-15157D02*
X26377Y-15157D01*
X20866Y-14173D02*
X20866Y-15157D01*
X18503Y-14173D02*
X20866Y-14173D01*
M02*
